<svg xmlns="http://www.w3.org/2000/svg" xmlns:xlink="http://www.w3.org/1999/xlink" viewBox="0 0 171.26 153.06"><defs><style>.a{fill:#0077bd;}.b{fill:url(#a);}</style><linearGradient id="a" x1="27.92" y1="63.27" x2="143.95" y2="63.27" gradientUnits="userSpaceOnUse"><stop offset="0" stop-color="#88c78f"/><stop offset="0.17" stop-color="#85c798"/><stop offset="0.46" stop-color="#7ec6b2"/><stop offset="0.83" stop-color="#73c5db"/><stop offset="0.99" stop-color="#6dc5f0"/></linearGradient></defs><path d="M6.57,119.53v20.09h9v4.87H0v-25Z"/><path d="M50,127.8h5.39v15.68c0,2.36-.11,5-2.06,7.11s-5.2,2.47-7,2.47a10.37,10.37,0,0,1-6.95-2.14,7.42,7.42,0,0,1-2.51-4.41h5.87a2.74,2.74,0,0,0,1.2,1.64,4.39,4.39,0,0,0,2.32.57,3.81,3.81,0,0,0,2.69-.9A5,5,0,0,0,50,144.34v-1.91c-.64,1-1.91,2.51-5,2.51A8.19,8.19,0,0,1,39,142.58a8.66,8.66,0,0,1-2.44-6.29A9.52,9.52,0,0,1,39,129.64a8.2,8.2,0,0,1,6.06-2.4,5.55,5.55,0,0,1,5,2.51Zm-6.7,5.2a4.62,4.62,0,0,0-1.27,3.11,4.41,4.41,0,0,0,1.16,3,4,4,0,0,0,3,1.2,4.13,4.13,0,0,0,2.92-1.09A4.4,4.4,0,0,0,50.49,136,4.21,4.21,0,0,0,49.22,133a4.54,4.54,0,0,0-2.92-1.05A4.42,4.42,0,0,0,43.34,133Z"/><path d="M61.38,119.22A3.35,3.35,0,1,1,58,122.56,3.31,3.31,0,0,1,61.38,119.22Zm2.83,8.58v16.69H58.58V127.8Z"/><path d="M79.5,133.08A5.41,5.41,0,0,0,76,131.8a4.33,4.33,0,0,0-3.07,1.2,4.41,4.41,0,0,0-1.23,3.15,4.33,4.33,0,0,0,1.12,3,4.43,4.43,0,0,0,3.26,1.35,5.31,5.31,0,0,0,3.44-1.31V144a8.4,8.4,0,0,1-4.27,1,9,9,0,0,1-6.47-2.51,8.7,8.7,0,0,1-2.62-6.36,8.76,8.76,0,0,1,9.13-8.94,9.43,9.43,0,0,1,4.23.94Z"/><path d="M84.08,144.49v-25h6.58v11.08h8.28V119.53h6.55v25H98.94v-8.57H90.66v8.57Z"/><path d="M124.41,143.15a17.09,17.09,0,0,1-7.66,1.9c-6,0-9.25-4.18-9.25-8.91a9,9,0,0,1,9.22-9.17c4.21,0,8.49,2.48,8.49,8.69a18.13,18.13,0,0,1-.11,1.83H113a4.45,4.45,0,0,0,4.59,3.28,12.64,12.64,0,0,0,4.91-1.17Zm-11.42-9h6.83a3.08,3.08,0,0,0-3-3.18A3.77,3.77,0,0,0,113,134.18Z"/><path d="M128.09,128.65a22.31,22.31,0,0,1,7.57-1.41c3.85,0,7.74,1.31,7.74,5.13v8.44a18.14,18.14,0,0,0,.67,3.69h-5.36c-.13-.54-.44-1.41-.54-1.95-1.17,1.21-2.26,2.5-4.84,2.5-4.06,0-6.58-2.77-6.58-5.88s2.61-5.63,6.87-5.63a6.42,6.42,0,0,1,4.32,1.4v-1.47c0-1.44-1.18-2.14-2.85-2.14a21.06,21.06,0,0,0-5.49,1.07Zm9.85,11.08v-1.5a4.33,4.33,0,0,0-3.09-1.14c-1.9,0-2.68,1-2.68,2.11s.94,1.88,2.38,1.88A4.74,4.74,0,0,0,137.94,139.73Z"/><path d="M152,133.48v11h-5.66V132.2a23.17,23.17,0,0,0-.55-4.4h5.14c.07.49.28,1.09.34,1.67,1-1.72,2.11-2.76,4-2.76a6.84,6.84,0,0,1,2.86.66l-1.52,5.14a16.05,16.05,0,0,0-2.41-.48C153.35,132,152.94,132.41,152,133.48Z"/><path d="M167.3,127.8h3.9v4h-3.9V139c0,1,.52,1.27,1.66,1.27.65,0,1.1-.1,1.9-.17l.34,4.11c-.76.62-3.24.84-3.87.84-2.76,0-5.69-1.46-5.69-5.36v-7.88h-2.76v-4h2.76v-3.61h5.66Z"/><path d="M26,127.24a8.91,8.91,0,1,0,8.9,8.91A8.91,8.91,0,0,0,26,127.24ZM26,140a3.81,3.81,0,1,1,3.8-3.8A3.81,3.81,0,0,1,26,140Z"/><polygon class="a" points="102.15 10.72 87.08 0 42.92 31.41 53.26 38.77 53.26 38.77 73.93 53.48 88.88 42.84 72.94 31.5 102.15 10.72"/><polygon class="a" points="104.24 53.77 89.3 64.41 115.28 82.89 130.22 72.26 104.24 53.77"/><path class="b" d="M27.92,64.09,28.1,42l72.36,51.48L84.81,104.56Zm115.82-1.45L144,40.3,118.21,22,102.4,33.23Z"/><path d="M117,151a7.44,7.44,0,0,1-.38.66l-.22-.58A7.28,7.28,0,0,0,117,150v-.13h-.54v-.5H117v-.65h.52v.65H118v.37a4.87,4.87,0,0,0,.25-.95l.45.07c0,.14,0,.25,0,.33h.25v-.48h.48v.48h.81v.51h-.81v.44h.93v.5h-.77a5.26,5.26,0,0,0,.84,1.18l-.34.39a4.75,4.75,0,0,1-.66-.95v1.23h-.49v-1.24a5.45,5.45,0,0,1-.67,1l-.35-.4a4.94,4.94,0,0,0,.85-1.21H118v-.5h.92v-.44h-.38c0,.12-.08.25-.12.36l-.45-.16v0h-.41v.17a6.26,6.26,0,0,0,.51.75l-.21.52a4.27,4.27,0,0,1-.3-.44v1.62H117Z"/><path d="M123.84,152.09a12.68,12.68,0,0,1-1.94.33l-.15-.54.81-.09v-.88h-.63v-.5h1.8v.5h-.61v.79l.72-.15Zm1.59-2.07h-1.05v0a7.26,7.26,0,0,0,.17,1.26c.08.38.18.57.29.57s.11-.07.19-.21a1.93,1.93,0,0,0,.19-.38l.32.54a2.58,2.58,0,0,1-.27.42.6.6,0,0,1-.46.25c-.31,0-.54-.23-.7-.69a7.21,7.21,0,0,1-.28-1.71V150h-2.07v-.54h2c0-.24,0-.47,0-.68h.56c0,.12,0,.34,0,.68h.52a2.92,2.92,0,0,0-.44-.42l.34-.3a3.29,3.29,0,0,1,.52.48l-.28.24h.42Z"/><path d="M129.88,150.34h-2v-.29a5.79,5.79,0,0,1-.64.36l-.38-.42a4.89,4.89,0,0,0,1.72-1.23h.62a5,5,0,0,0,1.77,1.2l-.37.44a4.17,4.17,0,0,1-.68-.37Zm0,1.88a23.31,23.31,0,0,1-2.56.28l-.18-.54.6,0a8.42,8.42,0,0,0,.45-.81h-1.09v-.5h3.6v.5h-1.89c-.1.21-.25.47-.43.78.36,0,.75-.06,1.15-.11l-.39-.42.52-.19a11.14,11.14,0,0,1,1,1.1l-.55.23A2.94,2.94,0,0,0,129.85,152.22Zm-1.73-2.37h1.48a5.44,5.44,0,0,1-.75-.64A6.43,6.43,0,0,1,128.12,149.85Z"/><path d="M133.43,152.51h-.53V151.2c-.16.16-.33.32-.51.47l-.24-.49a4.68,4.68,0,0,0,1.14-1.33h-1v-.49h.56v-.59h.54v.59h.49v.43a4.92,4.92,0,0,1-.41.7,6.58,6.58,0,0,0,.65.59l-.3.43a4.8,4.8,0,0,1-.4-.39Zm2.64-.11h-2.2v-.55h.84v-1.42H134v-.54h.75v-1.06h.56v1.06H136v.54h-.73v1.42h.8Z"/><path d="M141.28,152.39H138v-3.18h3.28Zm-.6-.55v-2.08H138.6v2.08Z"/><path d="M145.11,151a16,16,0,0,0-1.77-.15v-.56a17.12,17.12,0,0,1,1.77.15Zm0-1.11a17,17,0,0,0-1.77-.16v-.56c.58,0,1.18.07,1.77.15Zm1.57-.13a2.87,2.87,0,0,1-1,2.15,3.77,3.77,0,0,1-2.3.65v-.59a3.24,3.24,0,0,0,1.9-.53,2.34,2.34,0,0,0,.76-1.68Zm-.51-.2h-.36v-.6h.36Zm.54,0h-.37v-.6h.37Z"/><path d="M149.28,151.17h-.54a10,10,0,0,0-.31-1.37h.51A9.8,9.8,0,0,1,149.28,151.17Zm2-1.32a2.87,2.87,0,0,1-.58,1.91,2.66,2.66,0,0,1-1.65.8v-.51a2,2,0,0,0,1.3-.73,2.55,2.55,0,0,0,.36-1.48v-.05h.57Zm-1,1.29h-.55a10.17,10.17,0,0,0-.29-1.37h.52A10.44,10.44,0,0,1,150.25,151.14Z"/><path d="M156.07,151.41a3,3,0,0,1-2.3,1.11V152a2.29,2.29,0,0,0,2.27-2.26h-1.57a2.29,2.29,0,0,1-.51.78,2.09,2.09,0,0,1-.77.5v-.61a1.86,1.86,0,0,0,.82-1.22h2.68A3.69,3.69,0,0,1,156.07,151.41Z"/><path d="M159.38,149.35q0,2.46-1.41,3.21v-.68a3.37,3.37,0,0,0,.79-2.52v-.26h.62Zm2.14,3.21c-.93-.5-1.4-1.57-1.4-3.21v-.25h.62v.27a3.4,3.4,0,0,0,.78,2.51Z"/><path d="M166.41,150.89H163v-.58h3.44Z"/><path d="M171.26,151.28c-.73-.19-1.5-.38-2.31-.54v1.82h-.62V149H169v1.14c1,.19,1.74.37,2.31.52Z"/></svg>