<svg xmlns="http://www.w3.org/2000/svg" xmlns:xlink="http://www.w3.org/1999/xlink" viewBox="0 0 168.09 30.5"><defs><style>.a{fill:#0077bd;}.b{fill:url(#a);}</style><linearGradient id="a" y1="18.45" x2="33.84" y2="18.45" gradientUnits="userSpaceOnUse"><stop offset="0" stop-color="#88c78f"/><stop offset="0.17" stop-color="#85c798"/><stop offset="0.46" stop-color="#7ec6b2"/><stop offset="0.83" stop-color="#73c5db"/><stop offset="0.99" stop-color="#6dc5f0"/></linearGradient></defs><path d="M45.73,5.55V20.47h6.68v3.62H40.85V5.55Z"/><path d="M78,11.69h4V23.34c0,1.75-.08,3.72-1.53,5.28s-3.86,1.83-5.23,1.83a7.7,7.7,0,0,1-5.17-1.58,5.58,5.58,0,0,1-1.86-3.28h4.37a2,2,0,0,0,.88,1.22,3.31,3.31,0,0,0,1.73.42,2.82,2.82,0,0,0,2-.67A3.67,3.67,0,0,0,78,24V22.56a3.91,3.91,0,0,1-3.7,1.86,6.09,6.09,0,0,1-4.53-1.75A6.46,6.46,0,0,1,68,18a7.1,7.1,0,0,1,1.84-4.95,6.07,6.07,0,0,1,4.5-1.78A4.13,4.13,0,0,1,78,13.14Zm-5,3.86a3.44,3.44,0,0,0-1,2.31A3.29,3.29,0,0,0,73,20.09a3,3,0,0,0,2.25.89,3.08,3.08,0,0,0,2.17-.81,3.27,3.27,0,0,0,1-2.36,3.13,3.13,0,0,0-1-2.28,3.32,3.32,0,0,0-2.16-.78A3.27,3.27,0,0,0,73.05,15.55Z"/><path d="M86.45,5.31A2.49,2.49,0,1,1,84,7.8,2.46,2.46,0,0,1,86.45,5.31Zm2.1,6.38v12.4H84.37V11.69Z"/><path d="M99.91,15.61a4.05,4.05,0,0,0-2.61-.95,3.23,3.23,0,0,0-2.28.89,3.28,3.28,0,0,0-.92,2.34,3.23,3.23,0,0,0,.84,2.23,3.32,3.32,0,0,0,2.42,1,3.89,3.89,0,0,0,2.55-1v3.61a6.1,6.1,0,0,1-3.16.76,6.67,6.67,0,0,1-4.81-1.87,6.42,6.42,0,0,1-2-4.72,6.52,6.52,0,0,1,6.78-6.65,7,7,0,0,1,3.14.7Z"/><path d="M103.32,24.09V5.55h4.89v8.23h6.15V5.55h4.86V24.09h-4.86V17.72h-6.15v6.37Z"/><path d="M133.29,23.09a12.66,12.66,0,0,1-5.7,1.42c-4.48,0-6.87-3.11-6.87-6.62a6.68,6.68,0,0,1,6.85-6.82c3.13,0,6.31,1.85,6.31,6.46,0,.21,0,.44-.08,1.36h-9a3.3,3.3,0,0,0,3.41,2.44,9.36,9.36,0,0,0,3.64-.87Zm-8.49-6.66h5.08a2.29,2.29,0,0,0-2.24-2.36A2.81,2.81,0,0,0,124.8,16.43Z"/><path d="M136,12.32a16.66,16.66,0,0,1,5.62-1.05c2.86,0,5.75,1,5.75,3.81v6.27a13.38,13.38,0,0,0,.5,2.74h-4c-.1-.39-.33-1-.4-1.44a4.5,4.5,0,0,1-3.6,1.86c-3,0-4.89-2.06-4.89-4.37S137,16,140.12,16A4.73,4.73,0,0,1,143.33,17V15.9c0-1.07-.87-1.59-2.11-1.59a15.55,15.55,0,0,0-4.08.8Zm7.31,8.24V19.44a3.17,3.17,0,0,0-2.29-.85c-1.41,0-2,.75-2,1.57s.7,1.39,1.77,1.39A3.5,3.5,0,0,0,143.33,20.56Z"/><path d="M153.76,15.91v8.18h-4.21V15a16.51,16.51,0,0,0-.41-3.27H153c.05.36.2.81.25,1.24.75-1.28,1.57-2,3-2a5.14,5.14,0,0,1,2.13.49l-1.13,3.82a11.46,11.46,0,0,0-1.8-.36C154.79,14.83,154.48,15.11,153.76,15.91Z"/><path d="M165.15,11.69h2.9v3h-2.9V20c0,.72.39.95,1.23.95.49,0,.82-.08,1.41-.13l.26,3.05a6.79,6.79,0,0,1-2.87.63c-2.05,0-4.23-1.09-4.23-4V14.67h-2v-3h2V9h4.2Z"/><path d="M60.13,11.27a6.62,6.62,0,1,0,6.61,6.62A6.62,6.62,0,0,0,60.13,11.27Zm0,9.45A2.83,2.83,0,1,1,63,17.89,2.83,2.83,0,0,1,60.13,20.72Z"/><polygon class="a" points="21.65 3.13 17.25 0 4.38 9.16 7.39 11.31 7.39 11.31 13.42 15.6 17.78 12.49 13.13 9.19 21.65 3.13"/><polygon class="a" points="22.26 15.68 17.9 18.78 25.48 24.18 29.84 21.07 22.26 15.68"/><path class="b" d="M0,18.69l.05-6.45,21.1,15L16.59,30.5Zm33.78-.42.06-6.52L26.33,6.41,21.72,9.69Z"/><path d="M127.79,29c-.09.16-.18.33-.28.49l-.17-.43a5.46,5.46,0,0,0,.45-.81v-.1h-.4v-.36h.4v-.49h.38v.49h.34V28a3.4,3.4,0,0,0,.19-.7l.34.05a2.42,2.42,0,0,1,0,.24h.19v-.36h.36v.36h.6V28h-.6v.33h.69v.37h-.57a4.51,4.51,0,0,0,.62.88l-.25.29a3.75,3.75,0,0,1-.49-.71v.91h-.36v-.92a4,4,0,0,1-.5.74l-.26-.29a3.79,3.79,0,0,0,.63-.9h-.56v-.37h.69V28h-.28c0,.09-.06.18-.1.27l-.33-.12v0h-.31v.13a5.06,5.06,0,0,0,.38.56l-.16.39-.22-.33v1.2h-.38Z"/><path d="M132.86,29.74a8.66,8.66,0,0,1-1.44.24l-.11-.4.6-.06v-.66h-.47v-.37h1.34v.37h-.45v.59l.53-.11ZM134,28.2h-.78a6.26,6.26,0,0,0,.13.94q.09.42.21.42s.09-.05.15-.15a2.44,2.44,0,0,0,.14-.28l.24.4a2.59,2.59,0,0,1-.21.31.45.45,0,0,1-.34.18c-.23,0-.4-.17-.52-.51a5.49,5.49,0,0,1-.2-1.27V28.2h-1.54v-.4h1.52l0-.51h.41q0,.13,0,.51h.39a2.5,2.5,0,0,0-.33-.32l.25-.22a2.6,2.6,0,0,1,.39.36l-.21.18H134Z"/><path d="M137.35,28.44h-1.52v-.22a3.72,3.72,0,0,1-.48.27l-.27-.31a3.65,3.65,0,0,0,1.27-.92h.46a4,4,0,0,0,1.32.9l-.28.32a3.54,3.54,0,0,1-.5-.27Zm0,1.39a14.68,14.68,0,0,1-1.91.21l-.13-.4h.44a6.35,6.35,0,0,0,.34-.6h-.81v-.38h2.68V29h-1.41c-.08.15-.18.34-.32.57.27,0,.56,0,.86-.08l-.29-.31.38-.14a8.93,8.93,0,0,1,.74.82l-.41.17C137.43,30,137.38,29.89,137.33,29.83ZM136,28.07h1.1a4.48,4.48,0,0,1-.56-.47A3.5,3.5,0,0,1,136,28.07Z"/><path d="M140,30.05h-.4v-1a4.17,4.17,0,0,1-.38.34l-.18-.36a3.31,3.31,0,0,0,.85-1h-.74v-.36h.42v-.44h.4v.44h.37V28a5.39,5.39,0,0,1-.3.52c.13.14.29.28.47.44l-.21.32A2.69,2.69,0,0,1,140,29Zm2-.08h-1.64v-.41h.62v-1h-.55V28.1h.55v-.78h.42v.78h.54v.41h-.54v1h.6Z"/><path d="M145.82,30h-2.43V27.59h2.43Zm-.45-.41V28h-1.54v1.54Z"/><path d="M148.66,28.91a12,12,0,0,0-1.31-.12v-.41a11.19,11.19,0,0,1,1.31.11Zm0-.83a12.43,12.43,0,0,0-1.31-.12v-.41a11.77,11.77,0,0,1,1.31.11Zm1.17-.1a2.12,2.12,0,0,1-.74,1.6,2.75,2.75,0,0,1-1.7.48v-.44a2.37,2.37,0,0,0,1.41-.39,1.73,1.73,0,0,0,.56-1.25Zm-.38-.14h-.26v-.45h.26Zm.4,0h-.27v-.45h.27Z"/><path d="M151.76,29.06h-.4a7.48,7.48,0,0,0-.23-1h.38A6.35,6.35,0,0,1,151.76,29.06Zm1.49-1a2.08,2.08,0,0,1-.43,1.42,1.91,1.91,0,0,1-1.22.59v-.37a1.54,1.54,0,0,0,1-.55,1.93,1.93,0,0,0,.26-1.09v0h.42Zm-.77,1h-.4a8.13,8.13,0,0,0-.22-1h.38A7,7,0,0,1,152.48,29Z"/><path d="M156.81,29.23a2.24,2.24,0,0,1-1.71.83v-.41A1.7,1.7,0,0,0,156.78,28h-1.16a1.72,1.72,0,0,1-.38.58,1.48,1.48,0,0,1-.57.37v-.45a1.4,1.4,0,0,0,.61-.91h2A2.71,2.71,0,0,1,156.81,29.23Z"/><path d="M159.26,27.7a2.46,2.46,0,0,1-1,2.39v-.51a2.51,2.51,0,0,0,.59-1.87v-.2h.45Zm1.6,2.38a2.44,2.44,0,0,1-1.05-2.38v-.19h.47v.2a2.51,2.51,0,0,0,.58,1.87Z"/><path d="M164.49,28.84h-2.55v-.43h2.55Z"/><path d="M168.09,29.14c-.54-.15-1.11-.28-1.72-.41v1.36h-.46V27.44h.46v.85c.73.14,1.3.27,1.72.39Z"/></svg>